<svg xmlns="http://www.w3.org/2000/svg" width="31" height="34" fill="none" viewBox="0 0 31 34">
  <path fill="#000" d="M8.525 4.642a1.554 1.554 0 0 0 1.1-.448l1.55-1.545A1.549 1.549 0 0 0 10.075 0c-.413 0-.809.163-1.1.454L7.425 2a1.545 1.545 0 0 0 0 2.194 1.55 1.55 0 0 0 1.1.448Zm6.2 0a1.555 1.555 0 0 0 1.1-.448l1.55-1.545A1.549 1.549 0 0 0 16.275 0c-.413 0-.809.163-1.1.454L13.624 2a1.545 1.545 0 0 0 0 2.194 1.55 1.55 0 0 0 1.1.448Zm6.2 0a1.555 1.555 0 0 0 1.1-.448l1.55-1.545a1.551 1.551 0 0 0 .338-1.691A1.551 1.551 0 0 0 22.475 0a1.56 1.56 0 0 0-1.1.454L19.825 2a1.545 1.545 0 0 0 0 2.194 1.55 1.55 0 0 0 1.1.448Zm3.751 17.955a1.171 1.171 0 0 0-.14-.279l-.186-.231-.232-.186a1.18 1.18 0 0 0-.279-.139.93.93 0 0 0-.294-.092 1.554 1.554 0 0 0-1.396.417c-.066.073-.128.15-.186.232-.058.086-.105.18-.139.278a.987.987 0 0 0-.093.278 2.097 2.097 0 0 0 0 .309c.002.405.163.794.45 1.081.143.15.317.266.511.34.177.076.366.118.558.124a1.553 1.553 0 0 0 1.55-1.545 2.097 2.097 0 0 0 0-.31.987.987 0 0 0-.124-.277Zm2.852-6.969L25.42 9.355a4.637 4.637 0 0 0-1.707-2.245 4.66 4.66 0 0 0-2.695-.846H9.982a4.66 4.66 0 0 0-2.695.846A4.637 4.637 0 0 0 5.58 9.355l-2.108 6.273a4.65 4.65 0 0 0-2.497 1.645A4.629 4.629 0 0 0 0 20.093v6.181a4.63 4.63 0 0 0 .857 2.669A4.648 4.648 0 0 0 3.1 30.63v1.824c0 .41.163.803.454 1.092A1.552 1.552 0 0 0 6.2 32.455V30.91h18.6v1.545c0 .41.163.803.454 1.092a1.552 1.552 0 0 0 2.646-1.092v-1.823a4.648 4.648 0 0 0 2.243-1.69c.555-.78.854-1.712.857-2.668v-6.18a4.626 4.626 0 0 0-.975-2.822 4.65 4.65 0 0 0-2.497-1.644Zm-19.018-5.3a1.545 1.545 0 0 1 1.472-1.05h11.036a1.554 1.554 0 0 1 1.55 1.05l1.627 5.13H6.805l1.704-5.13ZM27.9 26.274a1.55 1.55 0 0 1-1.55 1.545H4.65a1.543 1.543 0 0 1-1.55-1.545v-6.18a1.55 1.55 0 0 1 1.55-1.546h21.7a1.553 1.553 0 0 1 1.55 1.545v6.181ZM17.05 21.64h-3.1a1.543 1.543 0 1 0 0 3.09h3.1c.411 0 .805-.163 1.096-.453a1.543 1.543 0 0 0-1.096-2.637Zm-7.874.958a1.174 1.174 0 0 0-.14-.279l-.185-.231a1.551 1.551 0 0 0-1.69-.325 1.55 1.55 0 0 0-.511.325c-.067.073-.13.15-.187.232-.058.086-.105.18-.139.278a.987.987 0 0 0-.124.278 2.094 2.094 0 0 0 0 .309 1.542 1.542 0 0 0 .963 1.423 1.555 1.555 0 0 0 1.688-.342c.286-.287.447-.676.449-1.081a2.094 2.094 0 0 0 0-.31.987.987 0 0 0-.124-.277Z"/>
</svg>
