<svg xmlns="http://www.w3.org/2000/svg"  fill="none" viewBox="0 0 40 40">
  <path fill="#000" fill-rule="evenodd" d="m19.654 4.537-1.389 2.084a.832.832 0 0 0 .693 1.296h.526l-.525.787a.831.831 0 0 0 .231 1.156.833.833 0 0 0 1.156-.23l1.388-2.084a.832.832 0 0 0-.692-1.296h-.527l.525-.787a.834.834 0 1 0-1.386-.926Zm10.221 12.936.01.003h.012c.068.01.103.007.103.007a.832.832 0 0 0 .735-1.226l-2.222-4.166-.158.261c.088-.306.032-.59-.403-.684a37.951 37.951 0 0 0-15.905 0c1.08-.23-.699.681-.56.423l-2.223 4.167A.832.832 0 0 0 10 17.483s.047.004.137-.011a59.997 59.997 0 0 1 19.726 0l.012.001Zm-2.65-4.253 1.257 2.356a61.597 61.597 0 0 0-16.964 0l1.256-2.356c4.768-.97 9.683-.97 14.451 0Z" clip-rule="evenodd"/>
  <path fill="#000" fill-rule="evenodd" d="m12.222 13.317.175-.019a36.579 36.579 0 0 1 15.204 0l.008.002.018.003c.098.02.15.014.15.014a.833.833 0 0 0 .834-.834V7.5a5.833 5.833 0 0 0-5.834-5.833h-5.555A5.835 5.835 0 0 0 11.388 7.5v4.984a.833.833 0 0 0 .834.834v-.001Zm14.722-1.85a38.362 38.362 0 0 0-13.889 0V7.5a4.17 4.17 0 0 1 1.22-2.947 4.17 4.17 0 0 1 2.947-1.22h5.555A4.167 4.167 0 0 1 26.944 7.5v3.967Zm-.277 4.996v.205a6.666 6.666 0 0 1-6.665 6.667H20a6.668 6.668 0 0 1-6.667-6.668v-.205c0-.781-1.666-.46-1.666-.001v.206A8.333 8.333 0 0 0 20 25h.002c4.6 0 8.331-3.73 8.331-8.332v-.206c0-.781-1.666-.46-1.666-.001v.002Z" clip-rule="evenodd"/>
  <path fill="#000" fill-rule="evenodd" d="M16.667 23.75v2.085a3.33 3.33 0 0 0 3.331 3.332h.003a3.333 3.333 0 0 0 3.333-3.334V23.75a.833.833 0 0 0-1.666 0v2.083A1.666 1.666 0 0 1 20 27.5h-.003a1.667 1.667 0 0 1-1.664-1.665V23.75a.833.833 0 0 0-1.667 0Z" clip-rule="evenodd"/>
  <path fill="#000" fill-rule="evenodd" d="m33.313 37.313-1.606-6.958a5.833 5.833 0 0 0-5.684-4.522H22.5a.833.833 0 0 0 0 1.667h3.523a4.167 4.167 0 0 1 4.06 3.23l1.605 6.957a.834.834 0 1 0 1.625-.374ZM17.5 25.832h-3.523a5.833 5.833 0 0 0-5.683 4.522l-1.606 6.957a.834.834 0 0 0 1.625.376l1.604-6.958a4.167 4.167 0 0 1 4.06-3.23H17.5a.833.833 0 0 0 0-1.667Z" clip-rule="evenodd"/>
  <path fill="#000" fill-rule="evenodd" d="m19.5 27.667-2.594 1.945-2.025-3.374c-.236-.395-1.665.463-1.428.857l2.5 4.167a.83.83 0 0 0 1.214.238L20.5 29a.834.834 0 0 0-1-1.333Z" clip-rule="evenodd"/>
  <path fill="#000" fill-rule="evenodd" d="m19.5 29 3.333 2.5a.832.832 0 0 0 1.215-.238l2.5-4.167c.236-.394-1.193-1.252-1.429-.857l-2.025 3.375-2.594-1.946a.833.833 0 1 0-1 1.333Z" clip-rule="evenodd"/>
  <path fill="#000" fill-rule="evenodd" d="M19.167 28.333V37.5a.834.834 0 0 0 1.666 0v-9.167a.834.834 0 0 0-1.666 0Zm5 9.167v-2.083a.42.42 0 0 1 .121-.295.42.42 0 0 1 .295-.122h2.5a.42.42 0 0 1 .295.122.42.42 0 0 1 .122.295V37.5a.833.833 0 0 0 1.667 0v-2.083a2.083 2.083 0 0 0-2.084-2.084h-2.5a2.083 2.083 0 0 0-2.083 2.084V37.5a.833.833 0 0 0 1.667 0Zm-13.875-9.442L8.013 25.78a.833.833 0 0 0-.863-.197 2.875 2.875 0 0 1-3.816-2.579l.23.229a2.122 2.122 0 1 0 3-3l-.229-.229c.715.031 1.393.33 1.898.837a2.875 2.875 0 0 1 .681 2.978.833.833 0 0 0 .198.863l2.797 2.796a.833.833 0 0 0 1.178-1.178l-2.453-2.453a4.538 4.538 0 0 0-6.324-5.1.83.83 0 0 0-.242 1.346l1.317 1.317a.456.456 0 0 1-.644.645l-1.317-1.318a.832.832 0 0 0-1.346.241 4.542 4.542 0 0 0 2.851 6.25 4.53 4.53 0 0 0 2.248.075l1.935 1.934a.833.833 0 0 0 1.178-1.178h.002Zm20.593 1.179 1.934-1.934a4.535 4.535 0 0 0 5.443-3.63 4.542 4.542 0 0 0-.341-2.695.83.83 0 0 0-1.347-.241l-1.318 1.316a.455.455 0 0 1-.644-.643l1.317-1.318a.834.834 0 0 0-.242-1.346 4.542 4.542 0 0 0-6.248 2.852 4.537 4.537 0 0 0-.076 2.248l-2.453 2.453a.833.833 0 0 0 1.178 1.178l2.797-2.796a.834.834 0 0 0 .198-.863 2.875 2.875 0 0 1 2.58-3.816l-.23.23a2.121 2.121 0 1 0 3.001 3l.229-.228a2.857 2.857 0 0 1-.837 1.898 2.875 2.875 0 0 1-2.979.68.833.833 0 0 0-.862.199l-2.277 2.277a.833.833 0 0 0 1.177 1.179Z" clip-rule="evenodd"/>
</svg>
