<svg xmlns="http://www.w3.org/2000/svg" viewBox="0 0 24 30" x="0px" y="0px"><title>ui 31</title><g data-name="Layer 2"><path d="M18.75,17.68945V16a.75.75,0,0,0-1.5,0v2a.75027.75027,0,0,0,.21973.53027l1,1a.74992.74992,0,0,0,1.06054-1.06054Z"/><path d="M14.5,5.25h-9a.75.75,0,0,0,0,1.5h9a.75.75,0,0,0,0-1.5Z"/><path d="M15.25,10a.7502.7502,0,0,0-.75-.75h-9a.75.75,0,0,0,0,1.5h9A.7502.7502,0,0,0,15.25,10Z"/><path d="M12.75,14a.7502.7502,0,0,0-.75-.75H5.5a.75.75,0,0,0,0,1.5H12A.7502.7502,0,0,0,12.75,14Z"/><path d="M5.5,17.25a.75.75,0,0,0,0,1.5H11a.75.75,0,0,0,0-1.5Z"/><path d="M18,13.25a4.73614,4.73614,0,0,0-3.4458,8H3A.253.253,0,0,1,2.75,21V3A.253.253,0,0,1,3,2.75H17a.253.253,0,0,1,.25.25v8a.75.75,0,0,0,1.5,0V3A1.75213,1.75213,0,0,0,17,1.25H3A1.75213,1.75213,0,0,0,1.25,3V21A1.75213,1.75213,0,0,0,3,22.75H17a1.65264,1.65264,0,0,0,.4187-.05884A4.65908,4.65908,0,0,0,18,22.75a4.75,4.75,0,0,0,0-9.5Zm0,8A3.25,3.25,0,1,1,21.25,18,3.25377,3.25377,0,0,1,18,21.25Z"/></g><text x="0" y="39" fill="#000000" font-size="5px" font-weight="bold" font-family="'Helvetica Neue', Helvetica, Arial-Unicode, Arial, Sans-serif">Created by Anggara Putra</text><text x="0" y="44" fill="#000000" font-size="5px" font-weight="bold" font-family="'Helvetica Neue', Helvetica, Arial-Unicode, Arial, Sans-serif">from the Noun Project</text></svg>