<svg xmlns="http://www.w3.org/2000/svg" width="28" height="40" fill="none" viewBox="0 0 28 40">
  <path fill="#000" d="M26.154 10.002a1.996 1.996 0 0 0-2.159 1.84l-.7 9.1a5.336 5.336 0 0 1-2.398-1.54 1.998 1.998 0 0 0-2.999 0 5.298 5.298 0 0 1-7.796 0 1.998 1.998 0 0 0-2.999 0 5.397 5.397 0 0 1-2.398 1.54l-.7-9.1a2 2 0 0 0-2.159-1.84 1.996 1.996 0 0 0-1.75 1.382c-.08.25-.111.515-.09.778l1.72 22.298A6 6 0 0 0 7.723 40h12.594a5.996 5.996 0 0 0 5.997-5.54l1.68-22.298a1.999 1.999 0 0 0-1.84-2.16ZM22.276 34.16a2 2 0 0 1-2 1.84H7.704a1.999 1.999 0 0 1-1.999-1.84l-.7-9.159a9.533 9.533 0 0 0 3.599-1.58 9.312 9.312 0 0 0 10.794 0 9.533 9.533 0 0 0 3.599 1.58l-.72 9.16ZM14 16.002a6.515 6.515 0 0 0 6.497-6.5c0-5.5-5.158-9.019-5.378-9.159a1.998 1.998 0 0 0-2.238 0c-.22.16-5.378 3.66-5.378 9.16A6.52 6.52 0 0 0 14 16.001Zm0-11.4a7.22 7.22 0 0 1 2.499 4.9 2.5 2.5 0 0 1-4.266 1.768 2.5 2.5 0 0 1-.732-1.768A7.32 7.32 0 0 1 14 4.602Z"/>
</svg>
